<svg width="445" height="445" viewBox="0 0 445 445" fill="none" xmlns="http://www.w3.org/2000/svg">
<circle cx="222" cy="221" r="214" fill="#241A02" fill-opacity="0.94"/>
<circle cx="222.5" cy="222.5" r="220" stroke="#241A02" stroke-width="5"/>
<g filter="url(#filter0_b_101_101)">
<path d="M260.424 47.0741C241 62.2624 294.073 102.672 225.415 113.183C202.482 92.0229 222.617 79.5746 224.888 75.4542C226.886 71.8305 245.31 55.7013 260.424 47.0741C261.943 45.8864 263.905 44.8529 266.403 44C264.506 44.8493 262.496 45.8912 260.424 47.0741Z" fill="#107207"/>
<path d="M230.815 129.18C228.658 125.642 224.557 117.49 225.415 113.183M225.415 113.183C299.442 101.85 231.955 55.7597 266.403 44C250.671 51.0431 227.16 71.3337 224.888 75.4542C222.617 79.5746 202.482 92.0229 225.415 113.183Z" stroke="black" stroke-width="0.1" stroke-linecap="round"/>
<path d="M224.626 112.895C220.805 97.4753 227.138 72.2332 247.942 62.0093" stroke="black" stroke-opacity="0.76" stroke-linecap="round"/>
<path d="M224.939 112.639L224.063 119.65C223.982 120.296 224.472 120.876 225.158 120.946L225.497 120.98C225.995 121.03 226.446 120.691 226.505 120.221L227.421 112.89C227.501 112.244 227.011 111.664 226.326 111.595C225.64 111.525 225.019 111.993 224.939 112.639Z" fill="#107207"/>
<path d="M173.963 71.1662C188.754 68.7302 189.023 110.215 208.216 92.4987C212.422 78.2129 199.22 76.486 195.026 74.3174C192.876 73.206 180.224 70.0298 173.963 71.1662Z" fill="#107207"/>
<path d="M210.804 95.7265C210.073 93.4185 209.942 94.3113 208.216 92.4986M208.216 92.4986C189.023 110.215 188.754 68.7302 173.963 71.1662C180.224 70.0298 192.876 73.206 195.026 74.3174C199.22 76.486 212.422 78.2129 208.216 92.4986Z" stroke="black" stroke-width="0.1" stroke-linecap="round"/>
<path d="M208.325 92.6376C205.092 84.0699 193.924 75.7725 182.705 72.9163" stroke="black" stroke-opacity="0.76" stroke-width="0.5" stroke-linecap="round"/>
<path d="M208.027 91.9735L210.935 95.3307C211.121 95.5453 211.158 95.9052 211.018 96.1345L211.01 96.1482C210.874 96.3699 210.619 96.3814 210.439 96.1738L207.52 92.8039C207.335 92.5892 207.297 92.2294 207.437 92C207.577 91.7707 207.841 91.7588 208.027 91.9735Z" fill="#107207"/>
<g filter="url(#filter1_i_101_101)">
<ellipse rx="40.953" ry="54.2868" transform="matrix(0.745362 -0.66666 0.740904 0.671611 204.746 157.239)" fill="#E8C3A9"/>
</g>
<path d="M234.526 130.604C245.487 140.539 252.009 152.526 253.73 163.842C255.451 175.158 252.37 185.743 244.226 193.027C236.083 200.311 224.307 203.013 211.751 201.388C199.195 199.763 185.928 193.81 174.967 183.874C164.006 173.938 157.483 161.952 155.762 150.635C154.041 139.32 157.122 128.735 165.266 121.451C173.41 114.167 185.185 111.464 197.741 113.089C210.297 114.715 223.565 120.668 234.526 130.604Z" stroke="black" stroke-width="2"/>
<g filter="url(#filter2_ii_101_101)">
<ellipse rx="41.8032" ry="53.1342" transform="matrix(0.863692 0.50402 -0.584184 0.811621 244.855 156.547)" fill="#E8C3A9"/>
</g>
<path d="M280.096 177.113C263.137 200.674 233.681 210.113 214.399 198.861C195.117 187.608 192.655 159.543 209.613 135.982C226.572 112.421 256.029 102.982 275.311 114.234C294.592 125.486 297.055 153.552 280.096 177.113Z" stroke="black" stroke-width="2"/>
<path d="M164.073 158.698C165.979 166.354 174.039 183.411 191.031 190.389" stroke="black" stroke-width="0.4"/>
<path d="M248.124 195.891C259.688 190.413 283.868 173.218 288.071 148.266" stroke="black" stroke-width="0.4"/>
<g filter="url(#filter3_d_101_101)">
<path d="M272.187 113.527C263.418 112.481 248.621 115.322 237.83 128.857C227.039 142.393 222.668 153.075 225.166 157.959" stroke="black" stroke-linecap="round"/>
</g>
<path d="M225.095 157.589C226.648 165.55 227.251 164.699 224.233 173.603" stroke="black" stroke-linecap="round"/>
<path d="M167.719 121.027C167.094 127.774 172.714 143.405 200.189 151.951" stroke="black" stroke-linecap="round"/>
</g>
<path d="M83.082 322.7C79.4154 322.7 76.6487 322.067 74.782 320.8C72.9154 319.6 71.982 317.567 71.982 314.7C71.982 314.5 72.1487 314.4 72.482 314.4C72.9487 314.4 73.782 314.567 74.982 314.9C76.182 315.233 78.482 315.4 81.882 315.4C87.6154 315.4 92.9154 314.767 97.782 313.5C102.649 312.167 106.849 310.367 110.382 308.1C113.982 305.833 116.749 303.3 118.682 300.5C120.682 297.633 121.682 294.7 121.682 291.7C121.682 288.967 120.915 286.767 119.382 285.1C117.849 283.433 115.815 282.167 113.282 281.3C110.815 280.433 108.115 279.867 105.182 279.6C102.249 279.267 99.3487 279.1 96.482 279.1C95.2154 279.1 93.9154 279.133 92.582 279.2C91.3154 279.2 90.1154 279.2 88.982 279.2C87.4487 284.6 85.9487 290.033 84.482 295.5C83.0154 300.967 81.5154 306.267 79.982 311.4C78.3154 311.4 76.9154 310.933 75.782 310C74.6487 309.067 74.082 307.933 74.082 306.6C74.082 305.8 74.2487 304.867 74.582 303.8C74.9154 302.733 75.2154 301.767 75.482 300.9C75.882 299.567 76.582 297.333 77.582 294.2C78.582 291.067 79.782 287.4 81.182 283.2C82.6487 279 84.2487 274.6 85.982 270C87.7154 265.4 89.482 260.9 91.282 256.5C93.1487 252.1 94.9487 248.2 96.682 244.8C93.882 245.267 91.5154 245.933 89.582 246.8C87.7154 247.667 86.2487 248.467 85.182 249.2C84.1154 249.867 83.3487 250.2 82.882 250.2C82.5487 250.2 82.1154 250.067 81.582 249.8C81.1154 249.467 80.682 249.1 80.282 248.7C79.882 248.233 79.682 247.833 79.682 247.5C83.0154 246.1 86.482 244.833 90.082 243.7C93.7487 242.567 98.182 242 103.382 242C105.582 242 108.015 242.2 110.682 242.6C113.349 242.933 115.882 243.667 118.282 244.8C120.682 245.867 122.649 247.467 124.182 249.6C125.715 251.667 126.482 254.433 126.482 257.9C126.482 261.167 125.782 263.967 124.382 266.3C122.982 268.567 121.149 270.467 118.882 272C116.615 273.467 114.149 274.633 111.482 275.5C108.815 276.367 106.182 277 103.582 277.4C108.515 277.667 112.482 278.367 115.482 279.5C118.549 280.633 120.849 282 122.382 283.6C123.982 285.133 125.049 286.767 125.582 288.5C126.115 290.233 126.382 291.9 126.382 293.5C126.382 297.367 125.382 300.867 123.382 304C121.382 307.133 118.749 309.867 115.482 312.2C112.215 314.533 108.649 316.467 104.782 318C100.915 319.6 97.082 320.767 93.282 321.5C89.482 322.3 86.082 322.7 83.082 322.7ZM89.582 276.9C93.2487 276.767 96.882 276.367 100.482 275.7C104.149 274.967 107.482 273.833 110.482 272.3C113.482 270.767 115.882 268.767 117.682 266.3C119.549 263.833 120.482 260.767 120.482 257.1C120.482 253.633 119.649 250.967 117.982 249.1C116.382 247.233 114.282 245.933 111.682 245.2C109.149 244.467 106.449 244.1 103.582 244.1C103.249 244.1 102.915 244.1 102.582 244.1C102.315 244.1 102.015 244.133 101.682 244.2C99.282 248.867 97.082 254 95.082 259.6C93.1487 265.2 91.3154 270.967 89.582 276.9ZM141.722 318.4C137.655 318.4 134.589 317.267 132.522 315C130.522 312.8 129.522 310.067 129.522 306.8C129.522 303.8 130.255 300.633 131.722 297.3C133.255 293.967 135.255 290.833 137.722 287.9C140.255 284.967 143.022 282.6 146.022 280.8C149.022 278.933 151.989 278 154.922 278C156.455 278 157.855 278.4 159.122 279.2C160.455 280 161.122 281.633 161.122 284.1C161.122 286.633 160.355 289.033 158.822 291.3C157.355 293.5 155.389 295.467 152.922 297.2C150.522 298.933 147.855 300.367 144.922 301.5C142.055 302.567 139.189 303.233 136.322 303.5C136.189 304.167 136.089 304.8 136.022 305.4C135.955 306 135.922 306.567 135.922 307.1C135.922 308.1 136.022 309.1 136.222 310.1C136.489 311.1 136.922 312.033 137.522 312.9C138.122 313.7 138.922 314.333 139.922 314.8C140.989 315.267 142.289 315.5 143.822 315.5C146.689 315.5 149.522 314.7 152.322 313.1C155.122 311.433 157.722 309.267 160.122 306.6C162.522 303.933 164.555 301 166.222 297.8L167.422 298.7C165.622 302.7 163.322 306.167 160.522 309.1C157.789 312.033 154.789 314.3 151.522 315.9C148.322 317.567 145.055 318.4 141.722 318.4ZM136.822 301.6C138.622 301 140.655 300.133 142.922 299C145.189 297.8 147.355 296.4 149.422 294.8C151.555 293.2 153.289 291.433 154.622 289.5C156.022 287.567 156.722 285.533 156.722 283.4C156.722 282.667 156.589 282.1 156.322 281.7C156.055 281.3 155.489 281.1 154.622 281.1C153.022 281.1 151.322 281.733 149.522 283C147.722 284.2 145.989 285.8 144.322 287.8C142.655 289.8 141.155 292 139.822 294.4C138.489 296.8 137.489 299.2 136.822 301.6ZM169.023 318.7C166.956 318.7 165.223 318 163.823 316.6C162.356 315.267 161.623 313.2 161.623 310.4C161.623 308 162.156 305.433 163.223 302.7C164.289 299.9 165.756 297.167 167.623 294.5C169.489 291.767 171.589 289.3 173.923 287.1C176.323 284.833 178.823 283.033 181.423 281.7C184.089 280.367 186.723 279.7 189.323 279.7C191.923 279.7 194.089 280.4 195.823 281.8C197.556 283.133 198.423 284.933 198.423 287.2C198.423 288.867 197.956 290 197.023 290.6C196.156 291.2 194.989 291.5 193.523 291.5C193.656 290.967 193.756 290.4 193.823 289.8C193.956 289.133 194.023 288.533 194.023 288C194.023 286.467 193.656 285.167 192.923 284.1C192.189 282.967 190.923 282.4 189.123 282.4C187.256 282.4 185.356 283.067 183.423 284.4C181.489 285.667 179.623 287.4 177.823 289.6C176.023 291.733 174.423 294.067 173.023 296.6C171.623 299.133 170.523 301.633 169.723 304.1C168.923 306.567 168.523 308.767 168.523 310.7C168.523 313.3 169.423 314.6 171.223 314.6C172.756 314.6 174.423 313.9 176.223 312.5C178.023 311.033 179.856 309.2 181.723 307C183.656 304.733 185.489 302.4 187.223 300C188.956 297.6 190.489 295.4 191.823 293.4C192.089 293 192.256 292.8 192.323 292.8C192.723 292.867 193.223 293 193.823 293.2C194.489 293.4 195.056 293.667 195.523 294C195.989 294.333 196.223 294.767 196.223 295.3C196.223 295.9 195.923 296.733 195.323 297.8C194.723 298.8 194.056 299.967 193.323 301.3C192.589 302.633 191.923 304 191.323 305.4C190.723 306.733 190.423 308 190.423 309.2C190.423 310.2 190.689 311.2 191.223 312.2C191.756 313.133 192.623 313.6 193.823 313.6C195.623 313.6 197.989 312.3 200.923 309.7C203.856 307.033 206.823 303.067 209.823 297.8L210.823 298.8C209.423 302.4 207.623 305.567 205.423 308.3C203.223 311.033 200.856 313.167 198.323 314.7C195.856 316.233 193.423 317 191.023 317C188.556 317 186.723 316.267 185.523 314.8C184.389 313.333 183.823 311.733 183.823 310C183.823 309.6 183.856 309.167 183.923 308.7C183.989 308.167 184.056 307.633 184.123 307.1C181.256 310.967 178.623 313.867 176.223 315.8C173.889 317.733 171.489 318.7 169.023 318.7ZM240.077 316C237.744 316 235.977 315.4 234.777 314.2C233.644 313 233.077 311.467 233.077 309.6C233.077 308.2 233.311 306.733 233.777 305.2C234.311 303.667 234.811 302.1 235.277 300.5C235.744 298.833 235.977 297.233 235.977 295.7C235.977 293.833 235.577 292.567 234.777 291.9C234.044 291.167 233.111 290.8 231.977 290.8C229.911 290.8 227.811 291.667 225.677 293.4C223.544 295.067 221.477 297.233 219.477 299.9C217.477 302.5 215.611 305.2 213.877 308C212.144 310.8 210.611 313.3 209.277 315.5C208.211 315.5 207.211 315.3 206.277 314.9C205.277 314.567 204.511 314.033 203.977 313.3C203.977 312.967 204.344 311.933 205.077 310.2C205.744 308.467 206.544 306.333 207.477 303.8C208.411 301.267 209.244 298.667 209.977 296C210.711 293.333 211.077 290.9 211.077 288.7C211.477 288.233 212.111 287.767 212.977 287.3C213.844 286.833 214.744 286.6 215.677 286.6C217.477 286.6 218.377 287.467 218.377 289.2C218.377 290.267 218.077 292.067 217.477 294.6C216.877 297.067 216.111 299.667 215.177 302.4C216.977 299.667 218.977 296.967 221.177 294.3C223.444 291.567 225.844 289.3 228.377 287.5C230.911 285.7 233.444 284.8 235.977 284.8C238.577 284.8 240.444 285.733 241.577 287.6C242.777 289.467 243.377 291.533 243.377 293.8C243.377 295.867 243.044 297.8 242.377 299.6C241.711 301.333 241.011 303.033 240.277 304.7C239.611 306.3 239.277 307.933 239.277 309.6C239.277 311 239.544 312 240.077 312.6C240.677 313.133 241.411 313.4 242.277 313.4C243.944 313.4 245.611 312.633 247.277 311.1C248.944 309.5 250.544 307.5 252.077 305.1C253.677 302.7 255.077 300.267 256.277 297.8L257.377 299.1C255.977 302.367 254.411 305.267 252.677 307.8C250.944 310.333 249.044 312.333 246.977 313.8C244.911 315.267 242.611 316 240.077 316ZM262.659 317C259.793 317 257.726 316 256.459 314C255.259 312.067 254.659 309.633 254.659 306.7C254.659 303.5 255.259 299.7 256.459 295.3C257.659 290.9 259.226 286.267 261.159 281.4C263.159 276.533 265.326 271.8 267.659 267.2C269.993 262.533 272.326 258.3 274.659 254.5C276.993 250.7 279.126 247.667 281.059 245.4C283.059 243.133 284.626 242 285.759 242C286.493 242 287.093 242.433 287.559 243.3C288.026 244.1 288.393 245.1 288.659 246.3C288.926 247.433 289.059 248.467 289.059 249.4C289.059 251.2 288.593 253.567 287.659 256.5C286.793 259.367 285.526 262.6 283.859 266.2C282.259 269.733 280.326 273.333 278.059 277C275.859 280.6 273.426 284.067 270.759 287.4C268.159 290.733 265.393 293.6 262.459 296C262.059 297.8 261.726 299.567 261.459 301.3C261.259 302.967 261.159 304.567 261.159 306.1C261.159 308.7 261.526 310.633 262.259 311.9C262.993 313.167 264.093 313.8 265.559 313.8C267.359 313.8 269.126 313 270.859 311.4C272.659 309.8 274.326 307.8 275.859 305.4C277.459 302.933 278.826 300.4 279.959 297.8L281.459 298.6C278.793 304.267 275.893 308.767 272.759 312.1C269.626 315.367 266.259 317 262.659 317ZM263.359 292.6C265.693 290.267 267.959 287.6 270.159 284.6C272.359 281.533 274.393 278.367 276.259 275.1C278.193 271.833 279.893 268.667 281.359 265.6C282.826 262.533 283.959 259.8 284.759 257.4C285.559 254.933 285.959 253.033 285.959 251.7C285.959 251.033 285.859 250.6 285.659 250.4C285.526 250.2 285.393 250.1 285.259 250.1C284.726 250.1 283.793 250.967 282.459 252.7C281.193 254.367 279.693 256.633 277.959 259.5C276.226 262.367 274.459 265.633 272.659 269.3C270.859 272.967 269.126 276.8 267.459 280.8C265.859 284.8 264.493 288.733 263.359 292.6ZM288.792 318.4C284.726 318.4 281.659 317.267 279.592 315C277.592 312.8 276.592 310.067 276.592 306.8C276.592 303.8 277.326 300.633 278.792 297.3C280.326 293.967 282.326 290.833 284.792 287.9C287.326 284.967 290.092 282.6 293.092 280.8C296.092 278.933 299.059 278 301.992 278C303.526 278 304.926 278.4 306.192 279.2C307.526 280 308.192 281.633 308.192 284.1C308.192 286.633 307.426 289.033 305.892 291.3C304.426 293.5 302.459 295.467 299.992 297.2C297.592 298.933 294.926 300.367 291.992 301.5C289.126 302.567 286.259 303.233 283.392 303.5C283.259 304.167 283.159 304.8 283.092 305.4C283.026 306 282.992 306.567 282.992 307.1C282.992 308.1 283.092 309.1 283.292 310.1C283.559 311.1 283.992 312.033 284.592 312.9C285.192 313.7 285.992 314.333 286.992 314.8C288.059 315.267 289.359 315.5 290.892 315.5C293.759 315.5 296.592 314.7 299.392 313.1C302.192 311.433 304.792 309.267 307.192 306.6C309.592 303.933 311.626 301 313.292 297.8L314.492 298.7C312.692 302.7 310.392 306.167 307.592 309.1C304.859 312.033 301.859 314.3 298.592 315.9C295.392 317.567 292.126 318.4 288.792 318.4ZM283.892 301.6C285.692 301 287.726 300.133 289.992 299C292.259 297.8 294.426 296.4 296.492 294.8C298.626 293.2 300.359 291.433 301.692 289.5C303.092 287.567 303.792 285.533 303.792 283.4C303.792 282.667 303.659 282.1 303.392 281.7C303.126 281.3 302.559 281.1 301.692 281.1C300.092 281.1 298.392 281.733 296.592 283C294.792 284.2 293.059 285.8 291.392 287.8C289.726 289.8 288.226 292 286.892 294.4C285.559 296.8 284.559 299.2 283.892 301.6ZM316.093 318.7C314.026 318.7 312.293 318 310.893 316.6C309.426 315.267 308.693 313.2 308.693 310.4C308.693 308 309.226 305.433 310.293 302.7C311.36 299.9 312.826 297.167 314.693 294.5C316.56 291.767 318.66 289.3 320.993 287.1C323.393 284.833 325.893 283.033 328.493 281.7C331.16 280.367 333.793 279.7 336.393 279.7C338.993 279.7 341.16 280.4 342.893 281.8C344.626 283.133 345.493 284.933 345.493 287.2C345.493 288.867 345.026 290 344.093 290.6C343.226 291.2 342.06 291.5 340.593 291.5C340.726 290.967 340.826 290.4 340.893 289.8C341.026 289.133 341.093 288.533 341.093 288C341.093 286.467 340.726 285.167 339.993 284.1C339.26 282.967 337.993 282.4 336.193 282.4C334.326 282.4 332.426 283.067 330.493 284.4C328.56 285.667 326.693 287.4 324.893 289.6C323.093 291.733 321.493 294.067 320.093 296.6C318.693 299.133 317.593 301.633 316.793 304.1C315.993 306.567 315.593 308.767 315.593 310.7C315.593 313.3 316.493 314.6 318.293 314.6C319.826 314.6 321.493 313.9 323.293 312.5C325.093 311.033 326.926 309.2 328.793 307C330.726 304.733 332.56 302.4 334.293 300C336.026 297.6 337.56 295.4 338.893 293.4C339.16 293 339.326 292.8 339.393 292.8C339.793 292.867 340.293 293 340.893 293.2C341.56 293.4 342.126 293.667 342.593 294C343.06 294.333 343.293 294.767 343.293 295.3C343.293 295.9 342.993 296.733 342.393 297.8C341.793 298.8 341.126 299.967 340.393 301.3C339.66 302.633 338.993 304 338.393 305.4C337.793 306.733 337.493 308 337.493 309.2C337.493 310.2 337.76 311.2 338.293 312.2C338.826 313.133 339.693 313.6 340.893 313.6C342.693 313.6 345.06 312.3 347.993 309.7C350.926 307.033 353.893 303.067 356.893 297.8L357.893 298.8C356.493 302.4 354.693 305.567 352.493 308.3C350.293 311.033 347.926 313.167 345.393 314.7C342.926 316.233 340.493 317 338.093 317C335.626 317 333.793 316.267 332.593 314.8C331.46 313.333 330.893 311.733 330.893 310C330.893 309.6 330.926 309.167 330.993 308.7C331.06 308.167 331.126 307.633 331.193 307.1C328.326 310.967 325.693 313.867 323.293 315.8C320.96 317.733 318.56 318.7 316.093 318.7ZM353.548 342C352.881 342 352.114 341.767 351.248 341.3C350.381 340.9 349.648 340.067 349.048 338.8C348.381 337.533 348.048 335.667 348.048 333.2C348.048 330.267 348.548 326.433 349.548 321.7C350.548 317.033 351.914 311.867 353.648 306.2C355.381 300.533 357.381 294.733 359.648 288.8C361.914 282.8 364.348 277.033 366.948 271.5C369.614 265.9 372.314 260.9 375.048 256.5C377.848 252.033 380.581 248.5 383.248 245.9C385.914 243.3 388.448 242 390.848 242C392.248 242 393.148 242.433 393.548 243.3C394.014 244.167 394.248 245.2 394.248 246.4C394.248 249.267 393.448 252.4 391.848 255.8C390.314 259.2 388.248 262.633 385.648 266.1C383.048 269.5 380.181 272.767 377.048 275.9C373.914 278.967 370.748 281.6 367.548 283.8C367.214 284.6 366.881 285.433 366.548 286.3C366.281 287.1 365.981 287.933 365.648 288.8C366.381 288.933 366.948 289.333 367.348 290C367.814 290.6 368.081 291.267 368.148 292C368.614 295 369.114 297.7 369.648 300.1C370.181 302.433 370.981 304.267 372.048 305.6C373.181 306.933 374.781 307.6 376.848 307.6C379.181 307.6 381.148 306.767 382.748 305.1C384.348 303.367 386.081 300.933 387.948 297.8L389.448 298.8C387.781 302.8 385.648 305.7 383.048 307.5C380.514 309.3 378.281 310.2 376.348 310.2C375.148 310.2 373.881 309.9 372.548 309.3C371.281 308.7 370.081 307.9 368.948 306.9C368.948 311.1 368.481 315.267 367.548 319.4C366.681 323.533 365.514 327.3 364.048 330.7C362.581 334.1 360.948 336.833 359.148 338.9C357.348 340.967 355.481 342 353.548 342ZM356.148 337.2C356.881 337.2 357.714 336.533 358.648 335.2C359.581 333.867 360.481 332.1 361.348 329.9C362.281 327.767 363.114 325.4 363.848 322.8C364.581 320.2 365.181 317.6 365.648 315C366.114 312.4 366.348 310.067 366.348 308C366.348 305.933 366.081 304.067 365.548 302.4C365.014 300.667 364.148 298.633 362.948 296.3C361.281 301.3 359.781 306.133 358.448 310.8C357.114 315.467 356.081 319.667 355.348 323.4C354.614 327.133 354.248 330.133 354.248 332.4C354.248 335.6 354.881 337.2 356.148 337.2ZM369.148 279.7C373.481 275.7 377.214 271.7 380.348 267.7C383.548 263.633 386.014 260.033 387.748 256.9C389.481 253.7 390.348 251.433 390.348 250.1C390.348 249.167 389.881 248.7 388.948 248.7C387.214 248.7 385.248 250.133 383.048 253C380.848 255.8 378.548 259.533 376.148 264.2C373.748 268.867 371.414 274.033 369.148 279.7Z" fill="#B46100"/>
<defs>
<filter id="filter0_b_101_101" x="150.251" y="39.9539" width="146.219" height="168.601" filterUnits="userSpaceOnUse" color-interpolation-filters="sRGB">
<feFlood flood-opacity="0" result="BackgroundImageFix"/>
<feGaussianBlur in="BackgroundImage" stdDeviation="2"/>
<feComposite in2="SourceAlpha" operator="in" result="effect1_backgroundBlur_101_101"/>
<feBlend mode="normal" in="SourceGraphic" in2="effect1_backgroundBlur_101_101" result="shape"/>
</filter>
<filter id="filter1_i_101_101" x="154.251" y="111.687" width="104.991" height="95.1028" filterUnits="userSpaceOnUse" color-interpolation-filters="sRGB">
<feFlood flood-opacity="0" result="BackgroundImageFix"/>
<feBlend mode="normal" in="SourceGraphic" in2="BackgroundImageFix" result="shape"/>
<feColorMatrix in="SourceAlpha" type="matrix" values="0 0 0 0 0 0 0 0 0 0 0 0 0 0 0 0 0 0 127 0" result="hardAlpha"/>
<feOffset dx="20" dy="10"/>
<feGaussianBlur stdDeviation="2"/>
<feComposite in2="hardAlpha" operator="arithmetic" k2="-1" k3="1"/>
<feColorMatrix type="matrix" values="0 0 0 0 0 0 0 0 0 0 0 0 0 0 0 0 0 0 0.25 0"/>
<feBlend mode="normal" in2="shape" result="effect1_innerShadow_101_101"/>
</filter>
<filter id="filter2_ii_101_101" x="197.24" y="108.54" width="95.2291" height="100.015" filterUnits="userSpaceOnUse" color-interpolation-filters="sRGB">
<feFlood flood-opacity="0" result="BackgroundImageFix"/>
<feBlend mode="normal" in="SourceGraphic" in2="BackgroundImageFix" result="shape"/>
<feColorMatrix in="SourceAlpha" type="matrix" values="0 0 0 0 0 0 0 0 0 0 0 0 0 0 0 0 0 0 127 0" result="hardAlpha"/>
<feMorphology radius="1" operator="erode" in="SourceAlpha" result="effect1_innerShadow_101_101"/>
<feOffset dy="4"/>
<feGaussianBlur stdDeviation="2"/>
<feComposite in2="hardAlpha" operator="arithmetic" k2="-1" k3="1"/>
<feColorMatrix type="matrix" values="0 0 0 0 0 0 0 0 0 0 0 0 0 0 0 0 0 0 0.2 0"/>
<feBlend mode="normal" in2="shape" result="effect1_innerShadow_101_101"/>
<feColorMatrix in="SourceAlpha" type="matrix" values="0 0 0 0 0 0 0 0 0 0 0 0 0 0 0 0 0 0 127 0" result="hardAlpha"/>
<feOffset dy="10"/>
<feGaussianBlur stdDeviation="2"/>
<feComposite in2="hardAlpha" operator="arithmetic" k2="-1" k3="1"/>
<feColorMatrix type="matrix" values="0 0 0 0 0 0 0 0 0 0 0 0 0 0 0 0 0 0 0.25 0"/>
<feBlend mode="normal" in2="effect1_innerShadow_101_101" result="effect2_innerShadow_101_101"/>
</filter>
<filter id="filter3_d_101_101" x="219.979" y="112.833" width="56.7104" height="53.6237" filterUnits="userSpaceOnUse" color-interpolation-filters="sRGB">
<feFlood flood-opacity="0" result="BackgroundImageFix"/>
<feColorMatrix in="SourceAlpha" type="matrix" values="0 0 0 0 0 0 0 0 0 0 0 0 0 0 0 0 0 0 127 0" result="hardAlpha"/>
<feOffset dy="4"/>
<feGaussianBlur stdDeviation="2"/>
<feComposite in2="hardAlpha" operator="out"/>
<feColorMatrix type="matrix" values="0 0 0 0 0 0 0 0 0 0 0 0 0 0 0 0 0 0 0.25 0"/>
<feBlend mode="normal" in2="BackgroundImageFix" result="effect1_dropShadow_101_101"/>
<feBlend mode="normal" in="SourceGraphic" in2="effect1_dropShadow_101_101" result="shape"/>
</filter>
</defs>
</svg>
